<svg width="7" height="12" viewBox="0 0 7 12" fill="none" xmlns="http://www.w3.org/2000/svg">
<path fill-rule="evenodd" clip-rule="evenodd" d="M6.55028 1.53237C6.62468 1.60677 6.66188 1.69233 6.66188 1.78904C6.66188 1.88576 6.62468 1.97132 6.55028 2.04571L2.16456 6.43144L6.55028 10.8172C6.62468 10.8916 6.66188 10.9771 6.66188 11.0738C6.66188 11.1705 6.62468 11.2561 6.55028 11.3305L5.9923 11.8885C5.91791 11.9629 5.83235 12.0001 5.73563 12.0001C5.63892 12.0001 5.55336 11.9629 5.47896 11.8885L0.278588 6.68811C0.204191 6.61371 0.166992 6.52815 0.166992 6.43143C0.166992 6.33472 0.204191 6.24916 0.278588 6.17476L5.47896 0.974389C5.55336 0.899992 5.63892 0.862793 5.73563 0.862793C5.83235 0.862793 5.91791 0.899992 5.9923 0.974389L6.55028 1.53237Z" fill="#6A7178"/>
</svg>
