<svg width="214" height="214" viewBox="0 0 214 214" fill="none" xmlns="http://www.w3.org/2000/svg">
<path d="M1.17888 0H214V214H0V0H1.17888ZM211.642 2.35777H2.35777V211.642H211.642V2.35777Z" fill="white"/>
<path d="M145.612 53.5028C145.612 55.0185 145.845 56.4047 146.312 57.6872C146.778 58.9568 147.426 60.0709 148.281 60.9907C149.136 61.9234 150.146 62.6619 151.325 63.193C152.517 63.7242 153.838 63.9833 155.302 63.9833C156.753 63.9833 158.088 63.7242 159.279 63.193C160.484 62.6619 161.508 61.9234 162.35 60.9907C163.205 60.0709 163.865 58.9568 164.332 57.6872C164.798 56.4047 165.031 55.0185 165.031 53.5028C165.031 52.0908 164.798 50.7823 164.332 49.5516C163.865 48.3339 163.205 47.2586 162.35 46.3388C161.508 45.432 160.484 44.7065 159.279 44.1884C158.088 43.6702 156.753 43.4111 155.302 43.4111C153.838 43.4111 152.517 43.6702 151.325 44.1884C150.146 44.7065 149.136 45.432 148.281 46.3388C147.426 47.2586 146.778 48.3339 146.312 49.5516C145.845 50.7823 145.612 52.0908 145.612 53.5028ZM140.353 53.8138C140.353 51.5596 140.715 49.5128 141.467 47.6602C142.205 45.8077 143.241 44.2402 144.55 42.9317C145.871 41.6363 147.439 40.6258 149.252 39.9262C151.079 39.2267 153.074 38.8639 155.263 38.8639C157.466 38.838 159.487 39.1749 161.313 39.8485C163.153 40.5222 164.733 41.5197 166.068 42.8151C167.389 44.1236 168.426 45.6911 169.177 47.5177C169.915 49.3573 170.291 51.4042 170.291 53.6583C170.291 55.8606 169.915 57.8686 169.177 59.6823C168.426 61.483 167.389 63.0376 166.068 64.346C164.733 65.6415 163.153 66.6649 161.313 67.3904C159.487 68.1288 157.466 68.5045 155.263 68.5304C153.074 68.5304 151.079 68.1806 149.252 67.4681C147.439 66.7685 145.871 65.771 144.55 64.4885C143.241 63.193 142.205 61.6514 141.467 59.8377C140.715 58.037 140.353 56.029 140.353 53.8138Z" fill="white"/>
<path d="M105.18 52.7522C105.905 52.7522 106.618 52.7263 107.343 52.6615C108.056 52.5838 108.716 52.4283 109.312 52.1822C109.908 51.9231 110.401 51.5344 110.763 51.0162C111.139 50.4981 111.32 49.7726 111.32 48.8528C111.32 48.0237 111.152 47.363 110.802 46.8578C110.465 46.3525 110.012 45.9768 109.455 45.7177C108.898 45.4716 108.276 45.3032 107.602 45.2255C106.916 45.1348 106.255 45.0959 105.62 45.0959H101.28V52.7522H105.18ZM96.2539 40.7949H106.061C107.421 40.7949 108.729 40.9245 109.986 41.1706C111.256 41.4297 112.37 41.8572 113.354 42.4661C114.339 43.075 115.129 43.9041 115.712 44.9405C116.295 45.9768 116.593 47.2982 116.593 48.8917C116.593 50.9385 116.023 52.6485 114.896 54.0347C113.769 55.4079 112.149 56.25 110.051 56.5479L117.539 69.0234H111.489L104.947 57.0661H101.28V69.0234H96.2539V40.7949Z" fill="white"/>
<path d="M54.8762 53.0372C55.5887 53.0372 56.3401 53.0113 57.1045 52.9595C57.8817 52.9076 58.5813 52.7392 59.242 52.4801C59.8897 52.2081 60.4209 51.8065 60.8354 51.2753C61.25 50.7442 61.4573 50.0058 61.4573 49.0471C61.4573 48.1662 61.2629 47.4666 60.8873 46.9484C60.5245 46.4303 60.0452 46.0416 59.4622 45.7566C58.8793 45.4846 58.2186 45.3032 57.5061 45.2255C56.7806 45.1348 56.094 45.0959 55.4333 45.0959H51.8448V53.0372H54.8762ZM46.8184 40.7949H56.3142C57.6615 40.7949 58.9699 40.9245 60.2395 41.1965C61.4961 41.4556 62.6102 41.909 63.5689 42.5309C64.5146 43.1527 65.2789 43.9948 65.8619 45.0441C66.4319 46.0934 66.7169 47.4019 66.7169 48.9694C66.7169 50.7442 66.406 52.1822 65.7971 53.2704C65.1882 54.3586 64.3591 55.2006 63.3228 55.8095C62.2864 56.4054 61.0816 56.807 59.7213 57.0273C58.3481 57.2345 56.9231 57.3382 55.4333 57.3382H51.8448V69.0234H46.8184V40.7949Z" fill="white"/>
<path d="M104.39 141.932H109.416V170.148H104.39V141.932Z" fill="white"/>
<path d="M46.8184 141.932H51.8448V165.601H63.8409V170.148H46.8184V141.932Z" fill="white"/>
<path d="M145.612 155.846C145.612 157.362 145.845 158.748 146.312 160.03C146.778 161.3 147.426 162.401 148.281 163.334C149.136 164.267 150.146 164.992 151.325 165.523C152.517 166.054 153.838 166.326 155.302 166.326C156.753 166.326 158.088 166.054 159.279 165.523C160.484 164.992 161.508 164.267 162.35 163.334C163.205 162.401 163.865 161.3 164.332 160.03C164.798 158.748 165.031 157.362 165.031 155.846C165.031 154.434 164.798 153.112 164.332 151.895C163.865 150.677 163.205 149.602 162.35 148.682C161.508 147.762 160.484 147.05 159.279 146.531C158.088 146.013 156.753 145.754 155.302 145.754C153.838 145.754 152.517 146.013 151.325 146.531C150.146 147.05 149.136 147.762 148.281 148.682C147.426 149.602 146.778 150.677 146.312 151.895C145.845 153.112 145.612 154.434 145.612 155.846ZM140.353 156.157C140.353 153.903 140.715 151.843 141.467 150.003C142.205 148.151 143.241 146.583 144.55 145.275C145.871 143.979 147.439 142.969 149.252 142.269C151.079 141.557 153.074 141.207 155.263 141.207C157.466 141.181 159.487 141.505 161.313 142.192C163.153 142.865 164.733 143.85 166.068 145.158C167.389 146.454 168.426 148.021 169.177 149.861C169.915 151.7 170.291 153.747 170.291 156.001C170.291 158.204 169.915 160.212 169.177 162.025C168.426 163.826 167.389 165.381 166.068 166.689C164.733 167.985 163.153 169.008 161.313 169.733C159.487 170.459 157.466 170.848 155.263 170.873C153.074 170.873 151.079 170.524 149.252 169.811C147.439 169.112 145.871 168.114 144.55 166.819C143.241 165.536 142.205 163.982 141.467 162.181C140.715 160.367 140.353 158.359 140.353 156.157Z" fill="white"/>
<path d="M97.1874 104.921C97.1874 106.436 97.4206 107.822 97.8869 109.105C98.3533 110.375 99.014 111.476 99.869 112.408C100.711 113.341 101.735 114.067 102.913 114.598C104.092 115.129 105.414 115.401 106.878 115.401C108.341 115.401 109.676 115.129 110.868 114.598C112.059 114.067 113.083 113.341 113.938 112.408C114.793 111.476 115.441 110.375 115.907 109.105C116.373 107.822 116.607 106.436 116.607 104.921C116.607 103.509 116.373 102.187 115.907 100.969C115.441 99.7517 114.793 98.6764 113.938 97.7566C113.083 96.8368 112.059 96.1243 110.868 95.6061C109.676 95.0879 108.341 94.8288 106.878 94.8288C105.414 94.8288 104.092 95.0879 102.913 95.6061C101.735 96.1243 100.711 96.8368 99.869 97.7566C99.014 98.6764 98.3533 99.7517 97.8869 100.969C97.4206 102.187 97.1874 103.509 97.1874 104.921ZM91.9277 105.232C91.9277 102.977 92.3034 100.918 93.0418 99.078C93.7932 97.2255 94.8166 95.6579 96.138 94.3495C97.4465 93.054 99.014 92.0436 100.841 91.344C102.667 90.6315 104.662 90.2817 106.839 90.2817C109.041 90.2558 111.062 90.5797 112.902 91.2663C114.728 91.9399 116.309 92.9245 117.643 94.2329C118.977 95.5284 120.014 97.0959 120.752 98.9355C121.503 100.775 121.866 102.822 121.866 105.076C121.866 107.278 121.503 109.286 120.752 111.1C120.014 112.901 118.977 114.455 117.643 115.764C116.309 117.059 114.728 118.083 112.902 118.808C111.062 119.534 109.041 119.922 106.839 119.948C104.662 119.948 102.667 119.598 100.841 118.886C99.014 118.186 97.4465 117.189 96.138 115.893C94.8166 114.611 93.7932 113.056 93.0418 111.255C92.3034 109.442 91.9277 107.447 91.9277 105.232Z" fill="white"/>
<path d="M46.8184 91.0071H65.0457V95.5413H46.8184V91.0071Z" fill="white"/>
<path d="M46.8184 102.965H65.0457V107.512H46.8184V102.965Z" fill="white"/>
<path d="M46.8184 114.689H51.8448V119.223H46.8184V114.689Z" fill="white"/>
</svg>
