<svg width="98" height="38" viewBox="0 0 98 38" fill="none" xmlns="http://www.w3.org/2000/svg">
<g filter="url(#filter0_d_2393_26810)">
<path fill-rule="evenodd" clip-rule="evenodd" d="M4 0H34.0682V21.2195L25.2677 30H4V0Z" fill="url(#paint0_linear_2393_26810)"/>
</g>
<g filter="url(#filter1_d_2393_26810)">
<path d="M14.5645 8.15918H23.4824V10.3777H14.5645V8.15918Z" fill="white"/>
</g>
<g filter="url(#filter2_d_2393_26810)">
<path d="M14.5645 14H23.4824V16.2185H14.5645V14Z" fill="white"/>
</g>
<g filter="url(#filter3_d_2393_26810)">
<path d="M14.5645 19.7239H17.0667V21.9443H14.5645V19.7239Z" fill="white"/>
</g>
<path d="M51.491 14.3543C51.491 15.6292 51.1993 16.6565 50.616 17.4359C50.0327 18.2153 49.243 18.6051 48.2467 18.6051C47.2299 18.6051 46.4298 18.2824 45.8465 17.6372V21.6712H44.4141V10.0725H45.7226L45.7923 11.0016C46.3756 10.279 47.186 9.91765 48.2235 9.91765C49.2301 9.91765 50.025 10.297 50.6083 11.0558C51.1967 11.8146 51.491 12.8702 51.491 14.2226V14.3543ZM50.0586 14.1917C50.0586 13.247 49.8572 12.5012 49.4546 11.954C49.052 11.4068 48.4997 11.1333 47.7977 11.1333C46.9305 11.1333 46.2801 11.5178 45.8465 12.2869V16.29C46.2749 17.0539 46.9305 17.4359 47.8132 17.4359C48.4997 17.4359 49.0443 17.1649 49.4469 16.6229C49.8547 16.0757 50.0586 15.2653 50.0586 14.1917ZM57.3677 11.3578C57.1509 11.3217 56.9161 11.3036 56.6632 11.3036C55.7237 11.3036 55.0862 11.7036 54.7507 12.5037V18.4502H53.3183V10.0725H54.712L54.7352 11.0404C55.2049 10.2919 55.8708 9.91765 56.7328 9.91765C57.0116 9.91765 57.2232 9.95378 57.3677 10.026V11.3578ZM58.1575 14.1839C58.1575 13.3632 58.3175 12.625 58.6376 11.9695C58.9628 11.3139 59.4118 10.8081 59.9848 10.4519C60.5629 10.0957 61.2211 9.91765 61.9592 9.91765C63.1 9.91765 64.0214 10.3125 64.7234 11.1023C65.4306 11.8921 65.7842 12.9425 65.7842 14.2536V14.3543C65.7842 15.1698 65.6267 15.9028 65.3118 16.5532C65.0021 17.1984 64.5556 17.7017 63.9723 18.0631C63.3942 18.4244 62.7283 18.6051 61.9747 18.6051C60.8391 18.6051 59.9177 18.2102 59.2105 17.4204C58.5085 16.6306 58.1575 15.5854 58.1575 14.2846V14.1839ZM59.5977 14.3543C59.5977 15.2834 59.8119 16.0293 60.2403 16.5919C60.6739 17.1546 61.252 17.4359 61.9747 17.4359C62.7025 17.4359 63.2807 17.152 63.7091 16.5842C64.1375 16.0112 64.3517 15.2111 64.3517 14.1839C64.3517 13.2651 64.1324 12.5218 63.6936 11.954C63.26 11.381 62.6819 11.0945 61.9592 11.0945C61.252 11.0945 60.6817 11.3759 60.2481 11.9385C59.8145 12.5012 59.5977 13.3064 59.5977 14.3543ZM68.2851 18.4502V11.1797H66.9611V10.0725H68.2851V9.21305C68.2851 8.31489 68.5251 7.62062 69.0052 7.13024C69.4852 6.63987 70.164 6.39468 71.0415 6.39468C71.3719 6.39468 71.6996 6.43855 72.0248 6.52631L71.9474 7.68772C71.7048 7.64127 71.4467 7.61804 71.1731 7.61804C70.7086 7.61804 70.3498 7.75483 70.0969 8.02841C69.844 8.29682 69.7175 8.68396 69.7175 9.18982V10.0725H71.5061V11.1797H69.7175V18.4502H68.2851ZM72.7139 14.1839C72.7139 13.3632 72.874 12.625 73.194 11.9695C73.5192 11.3139 73.9683 10.8081 74.5412 10.4519C75.1194 10.0957 75.7775 9.91765 76.5157 9.91765C77.6564 9.91765 78.5778 10.3125 79.2798 11.1023C79.987 11.8921 80.3406 12.9425 80.3406 14.2536V14.3543C80.3406 15.1698 80.1832 15.9028 79.8683 16.5532C79.5586 17.1984 79.1121 17.7017 78.5288 18.0631C77.9507 18.4244 77.2848 18.6051 76.5311 18.6051C75.3955 18.6051 74.4741 18.2102 73.767 17.4204C73.065 16.6306 72.7139 15.5854 72.7139 14.2846V14.1839ZM74.1541 14.3543C74.1541 15.2834 74.3683 16.0293 74.7968 16.5919C75.2304 17.1546 75.8085 17.4359 76.5311 17.4359C77.259 17.4359 77.8371 17.152 78.2655 16.5842C78.694 16.0112 78.9082 15.2111 78.9082 14.1839C78.9082 13.2651 78.6888 12.5218 78.25 11.954C77.8164 11.381 77.2383 11.0945 76.5157 11.0945C75.8085 11.0945 75.2381 11.3759 74.8045 11.9385C74.3709 12.5012 74.1541 13.3064 74.1541 14.3543ZM83.6932 18.4502H82.2608V6.55728H83.6932V18.4502ZM87.5491 18.4502H86.1167V10.0725H87.5491V18.4502ZM86.0006 7.85032C86.0006 7.61804 86.0703 7.42189 86.2096 7.26187C86.3542 7.10185 86.5658 7.02184 86.8445 7.02184C87.1233 7.02184 87.3349 7.10185 87.4794 7.26187C87.624 7.42189 87.6962 7.61804 87.6962 7.85032C87.6962 8.08261 87.624 8.27618 87.4794 8.43103C87.3349 8.58589 87.1233 8.66332 86.8445 8.66332C86.5658 8.66332 86.3542 8.58589 86.2096 8.43103C86.0703 8.27618 86.0006 8.08261 86.0006 7.85032ZM89.4693 14.1839C89.4693 13.3632 89.6294 12.625 89.9494 11.9695C90.2746 11.3139 90.7237 10.8081 91.2966 10.4519C91.8748 10.0957 92.5329 9.91765 93.271 9.91765C94.4118 9.91765 95.3332 10.3125 96.0352 11.1023C96.7424 11.8921 97.096 12.9425 97.096 14.2536V14.3543C97.096 15.1698 96.9385 15.9028 96.6237 16.5532C96.314 17.1984 95.8675 17.7017 95.2842 18.0631C94.706 18.4244 94.0402 18.6051 93.2865 18.6051C92.1509 18.6051 91.2295 18.2102 90.5224 17.4204C89.8203 16.6306 89.4693 15.5854 89.4693 14.2846V14.1839ZM90.9095 14.3543C90.9095 15.2834 91.1237 16.0293 91.5521 16.5919C91.9857 17.1546 92.5639 17.4359 93.2865 17.4359C94.0143 17.4359 94.5925 17.152 95.0209 16.5842C95.4493 16.0112 95.6636 15.2111 95.6636 14.1839C95.6636 13.2651 95.4442 12.5218 95.0054 11.954C94.5718 11.381 93.9937 11.0945 93.271 11.0945C92.5639 11.0945 91.9935 11.3759 91.5599 11.9385C91.1263 12.5012 90.9095 13.3064 90.9095 14.3543Z" fill="#2B2B2A"/>
<defs>
<filter id="filter0_d_2393_26810" x="0" y="0" width="38.0684" height="38" filterUnits="userSpaceOnUse" color-interpolation-filters="sRGB">
<feFlood flood-opacity="0" result="BackgroundImageFix"/>
<feColorMatrix in="SourceAlpha" type="matrix" values="0 0 0 0 0 0 0 0 0 0 0 0 0 0 0 0 0 0 127 0" result="hardAlpha"/>
<feOffset dy="4"/>
<feGaussianBlur stdDeviation="2"/>
<feComposite in2="hardAlpha" operator="out"/>
<feColorMatrix type="matrix" values="0 0 0 0 0 0 0 0 0 0 0 0 0 0 0 0 0 0 0.25 0"/>
<feBlend mode="normal" in2="BackgroundImageFix" result="effect1_dropShadow_2393_26810"/>
<feBlend mode="normal" in="SourceGraphic" in2="effect1_dropShadow_2393_26810" result="shape"/>
</filter>
<filter id="filter1_d_2393_26810" x="10.5645" y="8.15918" width="16.918" height="10.2185" filterUnits="userSpaceOnUse" color-interpolation-filters="sRGB">
<feFlood flood-opacity="0" result="BackgroundImageFix"/>
<feColorMatrix in="SourceAlpha" type="matrix" values="0 0 0 0 0 0 0 0 0 0 0 0 0 0 0 0 0 0 127 0" result="hardAlpha"/>
<feOffset dy="4"/>
<feGaussianBlur stdDeviation="2"/>
<feComposite in2="hardAlpha" operator="out"/>
<feColorMatrix type="matrix" values="0 0 0 0 0 0 0 0 0 0 0 0 0 0 0 0 0 0 0.25 0"/>
<feBlend mode="normal" in2="BackgroundImageFix" result="effect1_dropShadow_2393_26810"/>
<feBlend mode="normal" in="SourceGraphic" in2="effect1_dropShadow_2393_26810" result="shape"/>
</filter>
<filter id="filter2_d_2393_26810" x="10.5645" y="14" width="16.918" height="10.2185" filterUnits="userSpaceOnUse" color-interpolation-filters="sRGB">
<feFlood flood-opacity="0" result="BackgroundImageFix"/>
<feColorMatrix in="SourceAlpha" type="matrix" values="0 0 0 0 0 0 0 0 0 0 0 0 0 0 0 0 0 0 127 0" result="hardAlpha"/>
<feOffset dy="4"/>
<feGaussianBlur stdDeviation="2"/>
<feComposite in2="hardAlpha" operator="out"/>
<feColorMatrix type="matrix" values="0 0 0 0 0 0 0 0 0 0 0 0 0 0 0 0 0 0 0.25 0"/>
<feBlend mode="normal" in2="BackgroundImageFix" result="effect1_dropShadow_2393_26810"/>
<feBlend mode="normal" in="SourceGraphic" in2="effect1_dropShadow_2393_26810" result="shape"/>
</filter>
<filter id="filter3_d_2393_26810" x="10.5645" y="19.7239" width="10.502" height="10.2205" filterUnits="userSpaceOnUse" color-interpolation-filters="sRGB">
<feFlood flood-opacity="0" result="BackgroundImageFix"/>
<feColorMatrix in="SourceAlpha" type="matrix" values="0 0 0 0 0 0 0 0 0 0 0 0 0 0 0 0 0 0 127 0" result="hardAlpha"/>
<feOffset dy="4"/>
<feGaussianBlur stdDeviation="2"/>
<feComposite in2="hardAlpha" operator="out"/>
<feColorMatrix type="matrix" values="0 0 0 0 0 0 0 0 0 0 0 0 0 0 0 0 0 0 0.25 0"/>
<feBlend mode="normal" in2="BackgroundImageFix" result="effect1_dropShadow_2393_26810"/>
<feBlend mode="normal" in="SourceGraphic" in2="effect1_dropShadow_2393_26810" result="shape"/>
</filter>
<linearGradient id="paint0_linear_2393_26810" x1="8" y1="4.48979" x2="31.9295" y2="36.968" gradientUnits="userSpaceOnUse">
<stop stop-color="#4966CC"/>
<stop offset="1" stop-color="#12B6B6"/>
</linearGradient>
</defs>
</svg>
