<svg width="97" height="30" viewBox="0 0 97 30" fill="none" xmlns="http://www.w3.org/2000/svg">
<path fill-rule="evenodd" clip-rule="evenodd" d="M0 0H30.0682V21.2195L21.2677 30H0V0Z" fill="url(#paint0_linear_2557_23979)"/>
<path d="M10.5642 8.15918H19.4822V10.3777H10.5642V8.15918Z" fill="white"/>
<path d="M10.5642 14H19.4822V16.2185H10.5642V14Z" fill="white"/>
<path d="M10.5642 19.7239H13.0664V21.9443H10.5642V19.7239Z" fill="white"/>
<path d="M40.4089 11.9339H41.836V13.0122H41.8677C42.1426 12.6104 42.5179 12.2986 42.9936 12.0766C43.4799 11.8546 43.9767 11.7436 44.4842 11.7436C45.0656 11.7436 45.5889 11.844 46.054 12.0449C46.5297 12.2457 46.9315 12.5259 47.2592 12.8853C47.5975 13.2447 47.8565 13.6676 48.0362 14.1539C48.2159 14.6296 48.3058 15.1423 48.3058 15.692C48.3058 16.2523 48.2159 16.7756 48.0362 17.2619C47.8565 17.7376 47.5975 18.1552 47.2592 18.5146C46.9315 18.8635 46.5297 19.1383 46.054 19.3392C45.5889 19.5401 45.0656 19.6405 44.4842 19.6405C43.945 19.6405 43.4376 19.5295 42.9619 19.3075C42.4862 19.0749 42.1214 18.763 41.8677 18.3719H41.836V23.9219H40.4089V11.9339ZM44.3097 13.0756C43.9292 13.0756 43.5856 13.1443 43.279 13.2817C42.9724 13.4086 42.7134 13.5883 42.502 13.8209C42.2906 14.0429 42.1267 14.3177 42.0104 14.6455C41.8942 14.9626 41.836 15.3115 41.836 15.692C41.836 16.0726 41.8942 16.4268 42.0104 16.7545C42.1267 17.0716 42.2906 17.3465 42.502 17.579C42.7134 17.801 42.9724 17.9808 43.279 18.1182C43.5856 18.245 43.9292 18.3085 44.3097 18.3085C44.6903 18.3085 45.0339 18.245 45.3405 18.1182C45.647 17.9808 45.906 17.801 46.1175 17.579C46.3289 17.3465 46.4927 17.0716 46.609 16.7545C46.7253 16.4268 46.7835 16.0726 46.7835 15.692C46.7835 15.3115 46.7253 14.9626 46.609 14.6455C46.4927 14.3177 46.3289 14.0429 46.1175 13.8209C45.906 13.5883 45.647 13.4086 45.3405 13.2817C45.0339 13.1443 44.6903 13.0756 44.3097 13.0756ZM50.1028 11.9339H51.53V13.0914H51.5617C51.6568 12.8906 51.7837 12.7109 51.9423 12.5523C52.1008 12.3832 52.2753 12.2404 52.4656 12.1242C52.6664 12.0079 52.8831 11.918 53.1157 11.8546C53.3483 11.7806 53.5808 11.7436 53.8134 11.7436C54.046 11.7436 54.2574 11.7753 54.4477 11.8387L54.3843 13.3769C54.268 13.3452 54.1517 13.3187 54.0354 13.2976C53.9191 13.2764 53.8028 13.2659 53.6866 13.2659C52.9888 13.2659 52.455 13.4615 52.085 13.8526C51.715 14.2437 51.53 14.8516 51.53 15.6762V19.4502H50.1028V11.9339ZM56.8507 15.692C56.8507 16.0726 56.9088 16.4268 57.0251 16.7545C57.1414 17.0716 57.3053 17.3465 57.5167 17.579C57.7281 17.801 57.9871 17.9808 58.2937 18.1182C58.6003 18.245 58.9438 18.3085 59.3244 18.3085C59.705 18.3085 60.0486 18.245 60.3551 18.1182C60.6617 17.9808 60.9207 17.801 61.1321 17.579C61.3436 17.3465 61.5074 17.0716 61.6237 16.7545C61.74 16.4268 61.7981 16.0726 61.7981 15.692C61.7981 15.3115 61.74 14.9626 61.6237 14.6455C61.5074 14.3177 61.3436 14.0429 61.1321 13.8209C60.9207 13.5883 60.6617 13.4086 60.3551 13.2817C60.0486 13.1443 59.705 13.0756 59.3244 13.0756C58.9438 13.0756 58.6003 13.1443 58.2937 13.2817C57.9871 13.4086 57.7281 13.5883 57.5167 13.8209C57.3053 14.0429 57.1414 14.3177 57.0251 14.6455C56.9088 14.9626 56.8507 15.3115 56.8507 15.692ZM55.3284 15.692C55.3284 15.1423 55.4288 14.6296 55.6297 14.1539C55.8411 13.6782 56.1265 13.2606 56.486 12.9012C56.8454 12.5417 57.2683 12.2616 57.7546 12.0607C58.2408 11.8493 58.7641 11.7436 59.3244 11.7436C59.8847 11.7436 60.408 11.8493 60.8943 12.0607C61.3806 12.2616 61.8034 12.5417 62.1629 12.9012C62.5223 13.2606 62.8024 13.6782 63.0033 14.1539C63.2147 14.6296 63.3204 15.1423 63.3204 15.692C63.3204 16.2418 63.2147 16.7598 63.0033 17.246C62.8024 17.7218 62.5223 18.1393 62.1629 18.4988C61.8034 18.8476 61.3806 19.1278 60.8943 19.3392C60.408 19.5401 59.8847 19.6405 59.3244 19.6405C58.7641 19.6405 58.2408 19.5401 57.7546 19.3392C57.2683 19.1278 56.8454 18.8476 56.486 18.4988C56.1265 18.1393 55.8411 17.7218 55.6297 17.246C55.4288 16.7598 55.3284 16.2418 55.3284 15.692ZM65.6633 13.1707H64.0459V11.9339H65.6633V10.253C65.6633 9.24871 65.8536 8.50343 66.2342 8.01714C66.6253 7.52028 67.2914 7.27185 68.2322 7.27185C68.3908 7.27185 68.5546 7.27713 68.7238 7.2877C68.9035 7.29828 69.0938 7.32999 69.2946 7.38285L69.1361 8.65143C68.9986 8.59857 68.8665 8.56157 68.7396 8.54043C68.6128 8.51928 68.4754 8.50871 68.3274 8.50871C68.0631 8.50871 67.8516 8.551 67.6931 8.63557C67.5345 8.70957 67.4076 8.82057 67.3125 8.96857C67.2279 9.11657 67.1698 9.29629 67.1381 9.50772C67.1169 9.70857 67.1064 9.94115 67.1064 10.2054V11.9339H68.8031V13.1707H67.0905V19.4502H65.6633V13.1707ZM71.5465 15.692C71.5465 16.0726 71.6046 16.4268 71.7209 16.7545C71.8372 17.0716 72.0011 17.3465 72.2125 17.579C72.4239 17.801 72.6829 17.9808 72.9895 18.1182C73.2961 18.245 73.6397 18.3085 74.0202 18.3085C74.4008 18.3085 74.7444 18.245 75.0509 18.1182C75.3575 17.9808 75.6165 17.801 75.8279 17.579C76.0394 17.3465 76.2032 17.0716 76.3195 16.7545C76.4358 16.4268 76.494 16.0726 76.494 15.692C76.494 15.3115 76.4358 14.9626 76.3195 14.6455C76.2032 14.3177 76.0394 14.0429 75.8279 13.8209C75.6165 13.5883 75.3575 13.4086 75.0509 13.2817C74.7444 13.1443 74.4008 13.0756 74.0202 13.0756C73.6397 13.0756 73.2961 13.1443 72.9895 13.2817C72.6829 13.4086 72.4239 13.5883 72.2125 13.8209C72.0011 14.0429 71.8372 14.3177 71.7209 14.6455C71.6046 14.9626 71.5465 15.3115 71.5465 15.692ZM70.0242 15.692C70.0242 15.1423 70.1246 14.6296 70.3255 14.1539C70.5369 13.6782 70.8224 13.2606 71.1818 12.9012C71.5412 12.5417 71.9641 12.2616 72.4504 12.0607C72.9366 11.8493 73.4599 11.7436 74.0202 11.7436C74.5805 11.7436 75.1038 11.8493 75.5901 12.0607C76.0764 12.2616 76.4992 12.5417 76.8587 12.9012C77.2181 13.2606 77.4982 13.6782 77.6991 14.1539C77.9105 14.6296 78.0162 15.1423 78.0162 15.692C78.0162 16.2418 77.9105 16.7598 77.6991 17.246C77.4982 17.7218 77.2181 18.1393 76.8587 18.4988C76.4992 18.8476 76.0764 19.1278 75.5901 19.3392C75.1038 19.5401 74.5805 19.6405 74.0202 19.6405C73.4599 19.6405 72.9366 19.5401 72.4504 19.3392C71.9641 19.1278 71.5412 18.8476 71.1818 18.4988C70.8224 18.1393 70.5369 17.7218 70.3255 17.246C70.1246 16.7598 70.0242 16.2418 70.0242 15.692ZM79.9151 7.46213H81.3423V19.4502H79.9151V7.46213ZM83.7246 11.9339H85.1517V19.4502H83.7246V11.9339ZM83.3916 9.23814C83.3916 8.95271 83.492 8.70957 83.6929 8.50871C83.9043 8.29728 84.1527 8.19157 84.4382 8.19157C84.7236 8.19157 84.9667 8.29728 85.1676 8.50871C85.379 8.70957 85.4847 8.95271 85.4847 9.23814C85.4847 9.52357 85.379 9.772 85.1676 9.98343C84.9667 10.1843 84.7236 10.2847 84.4382 10.2847C84.1527 10.2847 83.9043 10.1843 83.6929 9.98343C83.492 9.772 83.3916 9.52357 83.3916 9.23814ZM88.5806 15.692C88.5806 16.0726 88.6388 16.4268 88.7551 16.7545C88.8713 17.0716 89.0352 17.3465 89.2466 17.579C89.4581 17.801 89.7171 17.9808 90.0236 18.1182C90.3302 18.245 90.6738 18.3085 91.0544 18.3085C91.4349 18.3085 91.7785 18.245 92.0851 18.1182C92.3916 17.9808 92.6506 17.801 92.8621 17.579C93.0735 17.3465 93.2374 17.0716 93.3537 16.7545C93.4699 16.4268 93.5281 16.0726 93.5281 15.692C93.5281 15.3115 93.4699 14.9626 93.3537 14.6455C93.2374 14.3177 93.0735 14.0429 92.8621 13.8209C92.6506 13.5883 92.3916 13.4086 92.0851 13.2817C91.7785 13.1443 91.4349 13.0756 91.0544 13.0756C90.6738 13.0756 90.3302 13.1443 90.0236 13.2817C89.7171 13.4086 89.4581 13.5883 89.2466 13.8209C89.0352 14.0429 88.8713 14.3177 88.7551 14.6455C88.6388 14.9626 88.5806 15.3115 88.5806 15.692ZM87.0583 15.692C87.0583 15.1423 87.1588 14.6296 87.3596 14.1539C87.571 13.6782 87.8565 13.2606 88.2159 12.9012C88.5753 12.5417 88.9982 12.2616 89.4845 12.0607C89.9708 11.8493 90.4941 11.7436 91.0544 11.7436C91.6146 11.7436 92.1379 11.8493 92.6242 12.0607C93.1105 12.2616 93.5334 12.5417 93.8928 12.9012C94.2522 13.2606 94.5324 13.6782 94.7332 14.1539C94.9447 14.6296 95.0504 15.1423 95.0504 15.692C95.0504 16.2418 94.9447 16.7598 94.7332 17.246C94.5324 17.7218 94.2522 18.1393 93.8928 18.4988C93.5334 18.8476 93.1105 19.1278 92.6242 19.3392C92.1379 19.5401 91.6146 19.6405 91.0544 19.6405C90.4941 19.6405 89.9708 19.5401 89.4845 19.3392C88.9982 19.1278 88.5753 18.8476 88.2159 18.4988C87.8565 18.1393 87.571 17.7218 87.3596 17.246C87.1588 16.7598 87.0583 16.2418 87.0583 15.692Z" fill="#2B2B2A"/>
<defs>
<linearGradient id="paint0_linear_2557_23979" x1="4" y1="4.48979" x2="27.9295" y2="36.968" gradientUnits="userSpaceOnUse">
<stop stop-color="#4966CC"/>
<stop offset="1" stop-color="#12B6B6"/>
</linearGradient>
</defs>
</svg>
