<svg width="130" height="40" viewBox="0 0 130 40" fill="none" xmlns="http://www.w3.org/2000/svg">
<path fill-rule="evenodd" clip-rule="evenodd" d="M0 0H40.0909V28.2926L28.3569 40H0V0Z" fill="url(#paint0_linear_2812_29360)"/>
<path d="M14.0859 10.8789H25.9765V13.8369H14.0859V10.8789Z" fill="white"/>
<path d="M14.0859 18.6665H25.9765V21.6245H14.0859V18.6665Z" fill="white"/>
<path d="M14.0859 26.2983H17.4222V29.259H14.0859V26.2983Z" fill="white"/>
<path d="M53.8789 15.9118H55.7818V17.3496H55.8241C56.1905 16.8139 56.6909 16.3981 57.3252 16.1021C57.9736 15.8061 58.6361 15.6581 59.3126 15.6581C60.0879 15.6581 60.7856 15.792 61.4058 16.0598C62.0401 16.3276 62.5757 16.7012 63.0127 17.1804C63.4637 17.6596 63.8091 18.2235 64.0487 18.8718C64.2883 19.5061 64.4081 20.1898 64.4081 20.9227C64.4081 21.6698 64.2883 22.3675 64.0487 23.0159C63.8091 23.6502 63.4637 24.2069 63.0127 24.6862C62.5757 25.1513 62.0401 25.5178 61.4058 25.7856C60.7856 26.0534 60.0879 26.1873 59.3126 26.1873C58.5938 26.1873 57.9172 26.0393 57.2829 25.7433C56.6486 25.4332 56.1623 25.0174 55.8241 24.4959H55.7818V31.8959H53.8789V15.9118ZM59.0801 17.4341C58.5726 17.4341 58.1145 17.5257 57.7058 17.709C57.297 17.8781 56.9517 18.1177 56.6698 18.4278C56.3879 18.7238 56.1694 19.0903 56.0143 19.5273C55.8593 19.9501 55.7818 20.4153 55.7818 20.9227C55.7818 21.4301 55.8593 21.9023 56.0143 22.3393C56.1694 22.7622 56.3879 23.1286 56.6698 23.4387C56.9517 23.7347 57.297 23.9743 57.7058 24.1576C58.1145 24.3267 58.5726 24.4113 59.0801 24.4113C59.5875 24.4113 60.0456 24.3267 60.4544 24.1576C60.8631 23.9743 61.2085 23.7347 61.4904 23.4387C61.7723 23.1286 61.9908 22.7622 62.1458 22.3393C62.3009 21.9023 62.3784 21.4301 62.3784 20.9227C62.3784 20.4153 62.3009 19.9501 62.1458 19.5273C61.9908 19.0903 61.7723 18.7238 61.4904 18.4278C61.2085 18.1177 60.8631 17.8781 60.4544 17.709C60.0456 17.5257 59.5875 17.4341 59.0801 17.4341Z" fill="#101213"/>
<path d="M66.8042 15.9118H68.7071V17.4553H68.7493C68.8762 17.1875 69.0453 16.9478 69.2568 16.7364C69.4682 16.5109 69.7008 16.3206 69.9545 16.1655C70.2223 16.0105 70.5113 15.8907 70.8214 15.8061C71.1315 15.7074 71.4416 15.6581 71.7516 15.6581C72.0617 15.6581 72.3437 15.7004 72.5974 15.785L72.5128 17.8358C72.3577 17.7936 72.2027 17.7583 72.0476 17.7301C71.8926 17.7019 71.7376 17.6878 71.5825 17.6878C70.6522 17.6878 69.9404 17.9486 69.4471 18.4701C68.9537 18.9917 68.7071 19.8021 68.7071 20.9016V25.9336H66.8042V15.9118Z" fill="#101213"/>
<path d="M75.8014 20.9227C75.8014 21.4301 75.8789 21.9023 76.0339 22.3393C76.189 22.7622 76.4075 23.1286 76.6894 23.4387C76.9713 23.7347 77.3166 23.9743 77.7254 24.1576C78.1341 24.3267 78.5922 24.4113 79.0997 24.4113C79.6071 24.4113 80.0652 24.3267 80.4739 24.1576C80.8827 23.9743 81.228 23.7347 81.51 23.4387C81.7919 23.1286 82.0103 22.7622 82.1654 22.3393C82.3204 21.9023 82.398 21.4301 82.398 20.9227C82.398 20.4153 82.3204 19.9501 82.1654 19.5273C82.0103 19.0903 81.7919 18.7238 81.51 18.4278C81.228 18.1177 80.8827 17.8781 80.4739 17.709C80.0652 17.5257 79.6071 17.4341 79.0997 17.4341C78.5922 17.4341 78.1341 17.5257 77.7254 17.709C77.3166 17.8781 76.9713 18.1177 76.6894 18.4278C76.4075 18.7238 76.189 19.0903 76.0339 19.5273C75.8789 19.9501 75.8014 20.4153 75.8014 20.9227ZM73.7716 20.9227C73.7716 20.1898 73.9055 19.5061 74.1733 18.8718C74.4552 18.2376 74.8358 17.6808 75.3151 17.2016C75.7943 16.7223 76.3581 16.3488 77.0065 16.081C77.6549 15.7991 78.3526 15.6581 79.0997 15.6581C79.8467 15.6581 80.5444 15.7991 81.1928 16.081C81.8412 16.3488 82.405 16.7223 82.8842 17.2016C83.3635 17.6808 83.737 18.2376 84.0048 18.8718C84.2867 19.5061 84.4277 20.1898 84.4277 20.9227C84.4277 21.6557 84.2867 22.3463 84.0048 22.9947C83.737 23.629 83.3635 24.1858 82.8842 24.665C82.405 25.1302 81.8412 25.5037 81.1928 25.7856C80.5444 26.0534 79.8467 26.1873 79.0997 26.1873C78.3526 26.1873 77.6549 26.0534 77.0065 25.7856C76.3581 25.5037 75.7943 25.1302 75.3151 24.665C74.8358 24.1858 74.4552 23.629 74.1733 22.9947C73.9055 22.3463 73.7716 21.6557 73.7716 20.9227Z" fill="#101213"/>
<path d="M87.5516 17.561H85.395V15.9118H87.5516V13.6707C87.5516 12.3316 87.8053 11.3379 88.3127 10.6895C88.8342 10.027 89.7222 9.6958 90.9767 9.6958C91.1881 9.6958 91.4066 9.70285 91.6321 9.71694C91.8718 9.73104 92.1255 9.77332 92.3933 9.8438L92.1819 11.5352C91.9986 11.4648 91.8224 11.4154 91.6533 11.3872C91.4841 11.359 91.3009 11.345 91.1036 11.345C90.7512 11.345 90.4693 11.4013 90.2579 11.5141C90.0464 11.6128 89.8773 11.7608 89.7504 11.9581C89.6377 12.1554 89.5601 12.3951 89.5178 12.677C89.4897 12.9448 89.4756 13.2549 89.4756 13.6072V15.9118H91.7379V17.561H89.4544V25.9336H87.5516V17.561Z" fill="#101213"/>
<path d="M95.3958 20.9227C95.3958 21.4301 95.4733 21.9023 95.6283 22.3393C95.7834 22.7622 96.0019 23.1286 96.2838 23.4387C96.5657 23.7347 96.911 23.9743 97.3198 24.1576C97.7285 24.3267 98.1866 24.4113 98.6941 24.4113C99.2015 24.4113 99.6596 24.3267 100.068 24.1576C100.477 23.9743 100.822 23.7347 101.104 23.4387C101.386 23.1286 101.605 22.7622 101.76 22.3393C101.915 21.9023 101.992 21.4301 101.992 20.9227C101.992 20.4153 101.915 19.9501 101.76 19.5273C101.605 19.0903 101.386 18.7238 101.104 18.4278C100.822 18.1177 100.477 17.8781 100.068 17.709C99.6596 17.5257 99.2015 17.4341 98.6941 17.4341C98.1866 17.4341 97.7285 17.5257 97.3198 17.709C96.911 17.8781 96.5657 18.1177 96.2838 18.4278C96.0019 18.7238 95.7834 19.0903 95.6283 19.5273C95.4733 19.9501 95.3958 20.4153 95.3958 20.9227ZM93.366 20.9227C93.366 20.1898 93.4999 19.5061 93.7677 18.8718C94.0497 18.2376 94.4302 17.6808 94.9095 17.2016C95.3887 16.7223 95.9525 16.3488 96.6009 16.081C97.2493 15.7991 97.947 15.6581 98.6941 15.6581C99.4411 15.6581 100.139 15.7991 100.787 16.081C101.436 16.3488 101.999 16.7223 102.479 17.2016C102.958 17.6808 103.331 18.2376 103.599 18.8718C103.881 19.5061 104.022 20.1898 104.022 20.9227C104.022 21.6557 103.881 22.3463 103.599 22.9947C103.331 23.629 102.958 24.1858 102.479 24.665C101.999 25.1302 101.436 25.5037 100.787 25.7856C100.139 26.0534 99.4411 26.1873 98.6941 26.1873C97.947 26.1873 97.2493 26.0534 96.6009 25.7856C95.9525 25.5037 95.3887 25.1302 94.9095 24.665C94.4302 24.1858 94.0497 23.629 93.7677 22.9947C93.4999 22.3463 93.366 21.6557 93.366 20.9227Z" fill="#101213"/>
<path d="M106.554 9.94952H108.457V25.9336H106.554V9.94952Z" fill="#101213"/>
<path d="M111.633 15.9118H113.536V25.9336H111.633V15.9118ZM111.189 12.3175C111.189 11.937 111.323 11.6128 111.591 11.345C111.873 11.063 112.204 10.9221 112.585 10.9221C112.965 10.9221 113.289 11.063 113.557 11.345C113.839 11.6128 113.98 11.937 113.98 12.3175C113.98 12.6981 113.839 13.0293 113.557 13.3112C113.289 13.5791 112.965 13.713 112.585 13.713C112.204 13.713 111.873 13.5791 111.591 13.3112C111.323 13.0293 111.189 12.6981 111.189 12.3175Z" fill="#101213"/>
<path d="M118.108 20.9227C118.108 21.4301 118.185 21.9023 118.34 22.3393C118.496 22.7622 118.714 23.1286 118.996 23.4387C119.278 23.7347 119.623 23.9743 120.032 24.1576C120.441 24.3267 120.899 24.4113 121.406 24.4113C121.914 24.4113 122.372 24.3267 122.781 24.1576C123.189 23.9743 123.535 23.7347 123.817 23.4387C124.098 23.1286 124.317 22.7622 124.472 22.3393C124.627 21.9023 124.705 21.4301 124.705 20.9227C124.705 20.4153 124.627 19.9501 124.472 19.5273C124.317 19.0903 124.098 18.7238 123.817 18.4278C123.535 18.1177 123.189 17.8781 122.781 17.709C122.372 17.5257 121.914 17.4341 121.406 17.4341C120.899 17.4341 120.441 17.5257 120.032 17.709C119.623 17.8781 119.278 18.1177 118.996 18.4278C118.714 18.7238 118.496 19.0903 118.34 19.5273C118.185 19.9501 118.108 20.4153 118.108 20.9227ZM116.078 20.9227C116.078 20.1898 116.212 19.5061 116.48 18.8718C116.762 18.2376 117.142 17.6808 117.622 17.2016C118.101 16.7223 118.665 16.3488 119.313 16.081C119.961 15.7991 120.659 15.6581 121.406 15.6581C122.153 15.6581 122.851 15.7991 123.499 16.081C124.148 16.3488 124.712 16.7223 125.191 17.2016C125.67 17.6808 126.044 18.2376 126.311 18.8718C126.593 19.5061 126.734 20.1898 126.734 20.9227C126.734 21.6557 126.593 22.3463 126.311 22.9947C126.044 23.629 125.67 24.1858 125.191 24.665C124.712 25.1302 124.148 25.5037 123.499 25.7856C122.851 26.0534 122.153 26.1873 121.406 26.1873C120.659 26.1873 119.961 26.0534 119.313 25.7856C118.665 25.5037 118.101 25.1302 117.622 24.665C117.142 24.1858 116.762 23.629 116.48 22.9947C116.212 22.3463 116.078 21.6557 116.078 20.9227Z" fill="#101213"/>
<defs>
<linearGradient id="paint0_linear_2812_29360" x1="5.33333" y1="5.98639" x2="37.2393" y2="49.2907" gradientUnits="userSpaceOnUse">
<stop stop-color="#4966CC"/>
<stop offset="1" stop-color="#12B6B6"/>
</linearGradient>
</defs>
</svg>
